<svg width="28" height="31" viewBox="0 0 28 31" fill="none" xmlns="http://www.w3.org/2000/svg">
<path d="M26.237 19.9903L15.0182 20.0239C15.013 18.5801 15.0102 16.3186 15.0028 16.2059L20.523 16.1894C23.1945 16.1652 25.3489 13.9963 25.3409 11.3312C25.3324 8.49719 22.8844 6.24944 20.0071 6.5253C20.1448 2.92737 17.2517 -0.0105502 13.6895 9.7224e-05C10.3994 0.00993163 7.70673 2.52918 7.42877 5.73311C4.47388 5.72857 2.14086 8.11992 2.14945 10.9963C2.15812 13.8948 4.52382 16.2373 7.43338 16.2286L12.5177 16.2134C12.5119 16.3127 12.5169 16.5492 12.5251 20.0314L1.30639 20.0649C0.617975 20.067 0.0615314 20.6268 0.0635891 21.3152L0.0896704 30.0409L27.5133 29.9589L27.4872 21.2331C27.4852 20.5447 26.9254 19.9883 26.237 19.9903ZM4.6491 26.2876C3.96068 26.2896 3.4009 25.7332 3.39884 25.0447C3.39678 24.3563 3.95323 23.7966 4.64164 23.7945C5.33006 23.7924 5.88984 24.3489 5.8919 25.0373C5.89396 25.7257 5.33751 26.2855 4.6491 26.2876ZM22.9315 26.2329L9.63521 26.2726C8.94679 26.2747 8.38701 25.7183 8.38496 25.0298C8.3829 24.3414 8.93934 23.7816 9.62776 23.7796L22.9241 23.7398C23.6125 23.7378 24.1723 24.2942 24.1743 24.9827C24.1764 25.6711 23.6199 26.2308 22.9315 26.2329Z" fill="#7C838B"/>
</svg>
