<svg width="17" height="16" viewBox="0 0 17 16" fill="none" xmlns="http://www.w3.org/2000/svg">
<path d="M13.85 5.8999H7.54999C6.7768 5.8999 6.14999 6.5267 6.14999 7.2999V13.5999C6.14999 14.3731 6.7768 14.9999 7.54999 14.9999H13.85C14.6232 14.9999 15.25 14.3731 15.25 13.5999V7.2999C15.25 6.5267 14.6232 5.8999 13.85 5.8999Z" stroke="#565656" stroke-width="2" stroke-linecap="round" stroke-linejoin="round"/>
<path d="M3.35 10.1H2.65C2.2787 10.1 1.9226 9.9525 1.66005 9.68995C1.3975 9.4274 1.25 9.0713 1.25 8.7V2.4C1.25 2.0287 1.3975 1.6726 1.66005 1.41005C1.9226 1.1475 2.2787 1 2.65 1H8.95C9.3213 1 9.6774 1.1475 9.93995 1.41005C10.2025 1.6726 10.35 2.0287 10.35 2.4V3.1" stroke="#565656" stroke-width="2" stroke-linecap="round" stroke-linejoin="round"/>
</svg>
