<svg width="25" height="30" viewBox="0 0 25 30" fill="none" xmlns="http://www.w3.org/2000/svg">
<path fill-rule="evenodd" clip-rule="evenodd" d="M0 1C0 0.447716 0.447715 0 1 0H23.1941C23.7464 0 24.1941 0.447715 24.1941 1V7.82353C24.1941 8.37581 23.7464 8.82353 23.1941 8.82353H1C0.447717 8.82353 0 8.37581 0 7.82353V1ZM4.85294 4.63235C4.85294 5.24149 4.35914 5.73529 3.75 5.73529C3.14086 5.73529 2.64706 5.24149 2.64706 4.63235C2.64706 4.02322 3.14086 3.52941 3.75 3.52941C4.35914 3.52941 4.85294 4.02322 4.85294 4.63235ZM8.16177 3.52941C7.55263 3.52941 7.05882 4.02322 7.05882 4.63235C7.05882 5.24149 7.55263 5.73529 8.16177 5.73529H20.0735C20.6827 5.73529 21.1765 5.24149 21.1765 4.63235C21.1765 4.02322 20.6827 3.52941 20.0735 3.52941H8.16177Z" fill="#7C838B"/>
<path fill-rule="evenodd" clip-rule="evenodd" d="M0 11.5879C0 11.0356 0.447715 10.5879 1 10.5879H23.1941C23.7464 10.5879 24.1941 11.0356 24.1941 11.5879V18.4114C24.1941 18.9637 23.7464 19.4114 23.1941 19.4114H1C0.447717 19.4114 0 18.9637 0 18.4114V11.5879ZM4.85294 15.2203C4.85294 15.8294 4.35914 16.3232 3.75 16.3232C3.14086 16.3232 2.64706 15.8294 2.64706 15.2203C2.64706 14.6111 3.14086 14.1173 3.75 14.1173C4.35914 14.1173 4.85294 14.6111 4.85294 15.2203ZM8.16177 14.1173C7.55263 14.1173 7.05882 14.6111 7.05882 15.2203C7.05882 15.8294 7.55263 16.3232 8.16177 16.3232H20.0735C20.6827 16.3232 21.1765 15.8294 21.1765 15.2203C21.1765 14.6111 20.6827 14.1173 20.0735 14.1173H8.16177Z" fill="#7C838B"/>
<path fill-rule="evenodd" clip-rule="evenodd" d="M0 22.1768C0 21.6245 0.447715 21.1768 1 21.1768H23.1941C23.7464 21.1768 24.1941 21.6245 24.1941 22.1768V29.0003C24.1941 29.5526 23.7464 30.0003 23.1941 30.0003H1C0.447717 30.0003 0 29.5526 0 29.0003V22.1768ZM4.85294 25.8091C4.85294 26.4182 4.35914 26.912 3.75 26.912C3.14086 26.912 2.64706 26.4182 2.64706 25.8091C2.64706 25.2 3.14086 24.7062 3.75 24.7062C4.35914 24.7062 4.85294 25.2 4.85294 25.8091ZM8.16177 24.7062C7.55263 24.7062 7.05882 25.2 7.05882 25.8091C7.05882 26.4182 7.55263 26.912 8.16177 26.912H20.0735C20.6827 26.912 21.1765 26.4182 21.1765 25.8091C21.1765 25.2 20.6827 24.7062 20.0735 24.7062H8.16177Z" fill="#7C838B"/>
</svg>
