<svg width="22" height="22" viewBox="0 0 22 22" fill="none" xmlns="http://www.w3.org/2000/svg">
<path d="M21.8072 11.483C21.812 11.4786 21.812 11.4786 21.8168 11.4741C21.8314 11.4561 21.8459 11.4426 21.8556 11.4247C21.8604 11.4202 21.8604 11.4157 21.8652 11.4112C21.8749 11.3932 21.8894 11.3753 21.8991 11.3573C21.8991 11.3528 21.9039 11.3483 21.9039 11.3483C21.9136 11.3304 21.9233 11.3124 21.933 11.2899C21.933 11.2854 21.933 11.2854 21.9378 11.281C21.9475 11.263 21.9523 11.2405 21.962 11.2181C21.962 11.2136 21.962 11.2091 21.9668 11.2091C21.9717 11.1867 21.9814 11.1687 21.9814 11.1462C21.9814 11.1373 21.9814 11.1328 21.9862 11.1238C21.991 11.1058 21.991 11.0879 21.9959 11.0699C22.0007 11.043 22.0007 11.0205 22.0007 10.9936C22.0007 10.9666 22.0007 10.9442 21.9959 10.9172C21.9959 10.8992 21.991 10.8813 21.9862 10.8633C21.9862 10.8543 21.9862 10.8499 21.9814 10.8409C21.9765 10.8184 21.9717 10.8005 21.9668 10.778C21.9668 10.7735 21.9668 10.769 21.962 10.769C21.9572 10.7466 21.9475 10.7286 21.9378 10.7061C21.9378 10.7017 21.9378 10.7017 21.933 10.6972C21.9233 10.6792 21.9136 10.6567 21.9039 10.6388C21.9039 10.6343 21.8991 10.6298 21.8991 10.6298C21.8894 10.6118 21.8797 10.5939 21.8652 10.5759C21.8604 10.5714 21.8604 10.5669 21.8556 10.5624C21.841 10.5445 21.8314 10.5265 21.8168 10.513C21.812 10.5086 21.812 10.5086 21.8072 10.5041C21.7878 10.4861 21.7733 10.4636 21.7491 10.4457L16.964 6.00886C16.6399 5.70798 16.1125 5.70798 15.7883 6.00886C15.4642 6.30974 15.4642 6.79923 15.7883 7.1001L19.1558 10.2256H5.76822C5.30858 10.2256 4.93604 10.5714 4.93604 10.9936C4.93604 11.4202 5.30858 11.766 5.76822 11.766H19.1606L15.8174 14.869C15.4932 15.1699 15.4932 15.6594 15.8174 15.9603C15.977 16.1085 16.1899 16.1848 16.4028 16.1848C16.6157 16.1848 16.8286 16.1085 16.9882 15.9603L21.7443 11.5459C21.7685 11.519 21.7878 11.501 21.8072 11.483Z" fill="#3F8CFE"/>
<path d="M4.50445 1.54031H10.6975C11.1571 1.54031 11.5297 1.19453 11.5297 0.772403C11.5297 0.345785 11.1571 0 10.6975 0H4.50445C2.02241 0 0 1.87712 0 4.18085V17.8191C0 20.1229 2.02241 22 4.50445 22H10.5959C11.0555 22 11.4281 21.6542 11.4281 21.2321C11.4281 20.8055 11.0555 20.4597 10.5959 20.4597H4.50445C2.93685 20.4597 1.65954 19.2741 1.65954 17.8191V4.18085C1.66437 2.72137 2.93685 1.54031 4.50445 1.54031Z" fill="#3F8CFE"/>
</svg>
