<svg width="18" height="19" viewBox="0 0 18 19" fill="none" xmlns="http://www.w3.org/2000/svg">
<path d="M17.842 9.89519C17.8459 9.89152 17.8459 9.89152 17.8499 9.88785C17.8618 9.87315 17.8737 9.86213 17.8816 9.84743C17.8855 9.84375 17.8855 9.84008 17.8895 9.83641C17.8974 9.82171 17.9093 9.80701 17.9172 9.79232C17.9172 9.78864 17.9212 9.78497 17.9212 9.78497C17.9291 9.77027 17.937 9.75557 17.9449 9.7372C17.9449 9.73353 17.9449 9.73353 17.9489 9.72985C17.9568 9.71516 17.9607 9.69679 17.9687 9.67841C17.9687 9.67474 17.9687 9.67107 17.9726 9.67107C17.9766 9.6527 17.9845 9.638 17.9845 9.61963C17.9845 9.61228 17.9845 9.6086 17.9885 9.60126C17.9924 9.58656 17.9924 9.57186 17.9964 9.55717C18.0003 9.53512 18.0003 9.51675 18.0003 9.4947C18.0003 9.47266 18.0003 9.45429 17.9964 9.43224C17.9964 9.41755 17.9924 9.40285 17.9885 9.38815C17.9885 9.3808 17.9885 9.37713 17.9845 9.36978C17.9805 9.35141 17.9766 9.33671 17.9726 9.31834C17.9726 9.31467 17.9726 9.31099 17.9687 9.31099C17.9647 9.29262 17.9568 9.27793 17.9489 9.25955C17.9489 9.25588 17.9489 9.25588 17.9449 9.25221C17.937 9.23751 17.9291 9.21914 17.9212 9.20444C17.9212 9.20077 17.9172 9.19709 17.9172 9.19709C17.9093 9.1824 17.9014 9.1677 17.8895 9.153C17.8855 9.14933 17.8855 9.14565 17.8816 9.14198C17.8697 9.12728 17.8618 9.11258 17.8499 9.10156C17.8459 9.09789 17.8459 9.09789 17.842 9.09421C17.8262 9.07952 17.8143 9.06115 17.7945 9.04645L13.8794 5.41632C13.6142 5.17015 13.1827 5.17015 12.9175 5.41632C12.6523 5.66249 12.6523 6.06298 12.9175 6.30915L15.6727 8.86641H4.71921C4.34314 8.86641 4.03833 9.14933 4.03833 9.4947C4.03833 9.84375 4.34314 10.1267 4.71921 10.1267H15.6766L12.9412 12.6656C12.676 12.9117 12.676 13.3122 12.9412 13.5584C13.0719 13.6796 13.246 13.7421 13.4202 13.7421C13.5944 13.7421 13.7686 13.6796 13.8992 13.5584L17.7905 9.94663C17.8103 9.92459 17.8262 9.90989 17.842 9.89519Z" fill="white"/>
<path d="M3.68546 1.76026H8.75247C9.12854 1.76026 9.43336 1.47734 9.43336 1.13197C9.43336 0.782915 9.12854 0.5 8.75247 0.5H3.68546C1.6547 0.5 0 2.03582 0 3.9207V15.0793C0 16.9642 1.6547 18.5 3.68546 18.5H8.66934C9.04541 18.5 9.35022 18.2171 9.35022 17.8717C9.35022 17.5227 9.04541 17.2397 8.66934 17.2397H3.68546C2.40287 17.2397 1.3578 16.2697 1.3578 15.0793V3.9207C1.36176 2.72658 2.40287 1.76026 3.68546 1.76026Z" fill="white"/>
</svg>
