<svg width="97" height="53" viewBox="0 0 97 53" fill="none" xmlns="http://www.w3.org/2000/svg">
<rect x="3.84375" y="15.3951" width="24.7813" height="8.10244" rx="4.05122" stroke="#3F8CFE"/>
<rect x="3.0625" y="24.4976" width="25.5625" height="8.10244" rx="4.05122" stroke="#3F8CFE"/>
<rect x="5.92517" y="33.6" width="22.4375" height="8.10244" rx="4.05122" stroke="#3F8CFE"/>
<ellipse cx="15.5814" cy="19.4464" rx="1.5625" ry="1.51707" fill="#3F8CFE"/>
<ellipse cx="19.4877" cy="19.4464" rx="1.5625" ry="1.51707" fill="#3F8CFE"/>
<ellipse cx="23.3939" cy="19.4464" rx="1.5625" ry="1.51707" fill="#3F8CFE"/>
<ellipse cx="15.5814" cy="28.5488" rx="1.5625" ry="1.51707" fill="#3F8CFE"/>
<ellipse cx="15.5814" cy="37.6512" rx="1.5625" ry="1.51707" fill="#3F8CFE"/>
<ellipse cx="19.4877" cy="28.5488" rx="1.5625" ry="1.51707" fill="#3F8CFE"/>
<ellipse cx="19.4877" cy="37.6512" rx="1.5625" ry="1.51707" fill="#3F8CFE"/>
<ellipse cx="23.3939" cy="28.5488" rx="1.5625" ry="1.51707" fill="#3F8CFE"/>
<ellipse cx="23.3939" cy="37.6512" rx="1.5625" ry="1.51707" fill="#3F8CFE"/>
<path d="M62.847 42.961C62.6612 42.4968 62.6611 42.4968 62.661 42.4969L62.66 42.4973L62.6553 42.4991L62.6358 42.5068L62.5565 42.5379C62.486 42.5654 62.3803 42.6061 62.2416 42.6585C61.964 42.7633 61.5538 42.9147 61.0262 43.1005C59.9708 43.4719 58.4461 43.9802 56.5732 44.5254C52.8256 45.6164 47.6924 46.8531 42.14 47.4417C30.9918 48.6233 18.3726 47.1744 11.7027 36.9979C6.73109 29.4125 6.23462 22.7338 7.54964 17.3292C8.868 11.9109 12.0195 7.7264 14.4269 5.17515C15.3231 4.32607 16.0822 3.64985 16.6201 3.17284C16.6544 3.14237 16.688 3.11264 16.7207 3.08366C16.9431 2.8865 17.1261 2.72431 17.2572 2.60387C17.3316 2.53558 17.3973 2.47339 17.4466 2.42222C17.4701 2.39778 17.4996 2.36582 17.5263 2.33102C17.5392 2.31417 17.5601 2.28539 17.5801 2.24846L17.5804 2.24786C17.5929 2.22484 17.6438 2.13051 17.6438 2V1.00966L16.847 1.59768L17.1438 2C16.847 1.59768 16.8469 1.59772 16.8469 1.59777L16.8467 1.59788L16.8463 1.59817L16.8451 1.59903L16.8414 1.60183L16.8281 1.61177C16.8167 1.62032 16.8003 1.63272 16.7791 1.64893C16.7367 1.68135 16.6752 1.72901 16.5964 1.79164C16.4388 1.91689 16.212 2.10208 15.9309 2.34497C15.3707 2.82887 14.5941 3.54253 13.7189 4.46839L13.7189 4.46843L13.7189 4.46845C10.6279 7.3993 5.90404 12.384 3.02124 18.3036C0.12926 24.242 -0.936911 31.1899 3.44345 37.9239C12.978 52.5813 27.9833 53.8993 40.4763 51.607C46.7261 50.4603 52.3787 48.4074 56.4655 46.6438C58.51 45.7616 60.1654 44.9506 61.3109 44.3594C61.8837 44.0638 62.3291 43.823 62.6322 43.6558C62.7837 43.5721 62.8997 43.5068 62.9782 43.4622C62.9903 43.4553 63.0015 43.4489 63.0118 43.443C63.0349 43.4298 63.0535 43.4191 63.0675 43.4111L63.0907 43.3977L63.0968 43.3941L63.0985 43.3931C63.099 43.3928 63.0993 43.3927 62.847 42.961ZM62.847 42.961L62.6612 42.4968L63.0993 43.3927L62.847 42.961Z" fill="#3F8CFE" stroke="#3F8CFE"/>
<path d="M50.347 24.7561H31.597V28.9281H41.7533L31.597 37.6512V41.8232H50.347V37.6512H39.8002L50.347 28.9281V24.7561Z" fill="#3F8CFE" stroke="#3F8CFE"/>
<path d="M74.5658 25.1354H53.472V38.4098L56.9877 41.8232H74.5658V38.0305H60.1127L58.1595 36.1342V28.9281H69.4877V31.5829H62.0658V34.9964H74.5658V25.1354Z" fill="#3F8CFE" stroke="#3F8CFE"/>
<path d="M96.4408 24.7561H77.3002V28.9281H84.3314V41.8232H89.8002V28.9281H96.4408V24.7561Z" fill="#3F8CFE" stroke="#3F8CFE"/>
</svg>
