<svg width="124" height="67" viewBox="0 0 124 67" fill="none" xmlns="http://www.w3.org/2000/svg">
<rect x="4.5" y="19.0059" width="32" height="10.6511" rx="4.5" stroke="#3F8CFE"/>
<rect x="3.5" y="30.657" width="33" height="10.6511" rx="4.5" stroke="#3F8CFE"/>
<rect x="7.16406" y="42.3081" width="29" height="10.6511" rx="4.5" stroke="#3F8CFE"/>
<ellipse cx="19.6641" cy="24.3313" rx="2" ry="1.94185" fill="#3F8CFE"/>
<ellipse cx="24.6641" cy="24.3313" rx="2" ry="1.94185" fill="#3F8CFE"/>
<ellipse cx="29.6641" cy="24.3313" rx="2" ry="1.94185" fill="#3F8CFE"/>
<ellipse cx="19.6641" cy="35.9824" rx="2" ry="1.94185" fill="#3F8CFE"/>
<ellipse cx="19.6641" cy="47.6335" rx="2" ry="1.94185" fill="#3F8CFE"/>
<ellipse cx="24.6641" cy="35.9824" rx="2" ry="1.94185" fill="#3F8CFE"/>
<ellipse cx="24.6641" cy="47.6335" rx="2" ry="1.94185" fill="#3F8CFE"/>
<ellipse cx="29.6641" cy="35.9824" rx="2" ry="1.94185" fill="#3F8CFE"/>
<ellipse cx="29.6641" cy="47.6335" rx="2" ry="1.94185" fill="#3F8CFE"/>
<path d="M80.1641 54.43C79.9783 53.9659 79.9782 53.9659 79.978 53.966L79.9766 53.9665L79.9706 53.969L79.9453 53.979C79.9227 53.9879 79.8885 54.0013 79.8431 54.019C79.7524 54.0543 79.6167 54.1066 79.4386 54.1738C79.0824 54.3083 78.5564 54.5026 77.88 54.7407C76.527 55.2169 74.573 55.8682 72.1728 56.5669C67.3707 57.9649 60.7917 59.5501 53.6739 60.3045C39.3949 61.8181 23.1663 59.9709 14.5823 46.874C8.1979 37.1331 7.55493 28.5446 9.24751 21.5883C10.9434 14.6182 14.9965 9.24008 18.0873 5.96525C19.2373 4.87555 20.2114 4.00785 20.9008 3.39649C20.9448 3.35747 20.9877 3.31942 21.0296 3.28236C21.3145 3.02976 21.5477 2.82311 21.7145 2.66984C21.8094 2.58275 21.8909 2.50557 21.9507 2.44337C21.9795 2.41341 22.0131 2.37692 22.0425 2.33859C22.0567 2.31997 22.0787 2.28968 22.0993 2.25149L22.0996 2.25104C22.1125 2.22709 22.1641 2.1316 22.1641 2V1.00966L21.3672 1.59768L21.6641 2C21.3672 1.59768 21.3672 1.59772 21.3671 1.59777L21.367 1.59789L21.3665 1.59822L21.3651 1.59923L21.3606 1.60264L21.344 1.615C21.3298 1.62571 21.3091 1.64133 21.2823 1.66182C21.2288 1.70281 21.1507 1.76329 21.0505 1.8429C20.8502 2.00212 20.5614 2.23793 20.203 2.5475C19.4885 3.16475 18.4969 4.07594 17.3793 5.2585L17.3793 5.25853L17.3793 5.25854C13.4266 9.0062 7.39276 15.3739 3.71306 22.9298C0.0241858 30.5046 -1.32583 39.3422 4.24497 47.9062C16.4045 66.599 35.5388 68.2887 51.5044 65.3593C59.4905 63.894 66.7154 61.2703 71.9404 59.0156C74.554 57.8877 76.6699 56.8511 78.1337 56.0956C78.8656 55.7179 79.4347 55.4103 79.8215 55.1968C80.015 55.09 80.1629 55.0067 80.2628 54.9499C80.2824 54.9388 80.3001 54.9287 80.3159 54.9196C80.3406 54.9055 80.3608 54.8939 80.3765 54.8849L80.4058 54.8679L80.4135 54.8635L80.4155 54.8623C80.4161 54.8619 80.4164 54.8617 80.1641 54.43ZM80.1641 54.43L79.9783 53.9659L80.4164 54.8617L80.1641 54.43Z" fill="#3F8CFE" stroke="#3F8CFE"/>
<path d="M64.1641 31.1277H40.1641V36.4678H53.1641L40.1641 47.6334V52.9735H64.1641V47.6334H50.6641L64.1641 36.4678V31.1277Z" fill="#3F8CFE" stroke="#3F8CFE"/>
<path d="M95.1641 31.6133H68.1641V48.6045L72.6641 52.9737H95.1641V48.119H76.6641L74.1641 45.6917V36.4679H88.6641V39.8662H79.1641V44.2353H95.1641V31.6133Z" fill="#3F8CFE" stroke="#3F8CFE"/>
<path d="M123.164 31.1277H98.6641V36.4678H107.664V52.9735H114.664V36.4678H123.164V31.1277Z" fill="#3F8CFE" stroke="#3F8CFE"/>
</svg>
