<svg width="78" height="43" viewBox="0 0 78 43" fill="none" xmlns="http://www.w3.org/2000/svg">
<rect x="3.375" y="12.8161" width="19.625" height="6.28195" rx="3.14098" stroke="white"/>
<rect x="2.75" y="20.0981" width="20.25" height="6.28195" rx="3.14098" stroke="white"/>
<rect x="5.04004" y="27.38" width="17.75" height="6.28195" rx="3.14098" stroke="white"/>
<ellipse cx="12.665" cy="15.9571" rx="1.25" ry="1.21366" fill="white"/>
<ellipse cx="15.79" cy="15.9571" rx="1.25" ry="1.21366" fill="white"/>
<ellipse cx="18.915" cy="15.9571" rx="1.25" ry="1.21366" fill="white"/>
<ellipse cx="12.665" cy="23.239" rx="1.25" ry="1.21366" fill="white"/>
<ellipse cx="12.665" cy="30.521" rx="1.25" ry="1.21366" fill="white"/>
<ellipse cx="15.79" cy="23.239" rx="1.25" ry="1.21366" fill="white"/>
<ellipse cx="15.79" cy="30.521" rx="1.25" ry="1.21366" fill="white"/>
<ellipse cx="18.915" cy="23.239" rx="1.25" ry="1.21366" fill="white"/>
<ellipse cx="18.915" cy="30.521" rx="1.25" ry="1.21366" fill="white"/>
<path d="M14.4151 2V1.00966L13.6182 1.59768L13.9151 2C13.6182 1.59768 13.6181 1.59772 13.6181 1.59776L13.6179 1.59787L13.6176 1.59813L13.6166 1.59888L13.6134 1.60125L13.6024 1.60946L13.5625 1.63972C13.5282 1.66602 13.4785 1.70453 13.4149 1.75503C13.2878 1.85602 13.1053 2.00504 12.8793 2.2003C12.4295 2.58895 11.8063 3.16152 11.1043 3.90402L11.1043 3.90407L11.1043 3.90409C8.62884 6.25152 4.84067 10.2483 2.52709 14.9991C0.204314 19.7687 -0.659114 25.3669 2.87093 30.7936C10.5305 42.5686 22.5866 43.6211 32.5991 41.784C37.6086 40.8648 42.1382 39.2196 45.412 37.8069C47.05 37.1 48.3764 36.4502 49.2945 35.9764C49.7537 35.7394 50.1109 35.5464 50.3541 35.4122C50.4757 35.345 50.5688 35.2926 50.6319 35.2567L50.704 35.2155L50.7228 35.2046L50.7278 35.2017L50.7292 35.2009C50.7296 35.2006 50.7299 35.2005 50.4776 34.7688L50.7299 35.2005L50.2917 34.3046L50.3264 34.3912C50.2917 34.3046 50.2917 34.3046 50.2917 34.3046L50.2909 34.3049L50.2873 34.3064L50.2719 34.3125L50.2089 34.3371C50.1528 34.359 50.0686 34.3914 49.9579 34.4332C49.7365 34.5168 49.4091 34.6377 48.9877 34.786C48.1449 35.0827 46.9269 35.4887 45.4306 35.9243C42.4361 36.7961 38.3357 37.7839 33.9014 38.2539C24.9896 39.1985 14.9485 38.0341 9.64576 29.9435C5.68337 23.8979 5.29154 18.5832 6.33687 14.287C7.38556 9.97702 9.89304 6.64518 11.8123 4.61078C12.5271 3.93358 13.1327 3.39413 13.5624 3.01309C13.5899 2.98876 13.6167 2.96499 13.6428 2.94181C13.8206 2.78421 13.9678 2.65375 14.0734 2.55675C14.1331 2.50189 14.1876 2.4504 14.2293 2.40712C14.249 2.38662 14.2757 2.3579 14.3004 2.32561C14.3123 2.31002 14.3326 2.28233 14.3521 2.2463L14.3524 2.2456C14.3645 2.22324 14.4151 2.12973 14.4151 2Z" fill="white" stroke="white"/>
<path d="M40.4775 20.2049H25.4775V23.5425H33.6025L25.4775 30.521V33.8586H40.4775V30.521H32.04L40.4775 23.5425V20.2049Z" fill="white" stroke="white"/>
<path d="M59.8525 20.5083H42.9775V31.1278L45.79 33.8585H59.8525V30.8244H48.29L46.7275 29.3073V23.5424H55.79V25.6663H49.8525V28.3971H59.8525V20.5083Z" fill="white" stroke="white"/>
<path d="M77.3525 20.2049H62.04V23.5425H67.665V33.8586H72.04V23.5425H77.3525V20.2049Z" fill="white" stroke="white"/>
</svg>
