<svg width="566" height="472" viewBox="0 0 566 472" fill="none" xmlns="http://www.w3.org/2000/svg">
<path d="M256.646 472C255.122 472 253.598 471.602 252.242 470.815L64.0689 362.005C58.2108 358.623 58.2108 350.169 64.0689 346.794L94.6039 329.165L135.723 352.945V353.236L142.993 357.147L144.293 357.902L145.342 358.499L147.844 359.965L148.11 360.115L150.892 361.723L154.457 363.787L252.256 420.334C252.773 420.641 253.319 420.873 253.892 421.08C254.787 421.371 255.709 421.519 256.632 421.519C258.1 421.519 259.568 421.156 260.882 420.426L350.32 371.206L372.886 358.797V358.946L385.273 352.282V351.983L396.081 346.041C396.612 346.579 397.227 347.06 397.94 347.475L426.881 364.401C432.767 367.848 432.655 376.395 426.671 379.678L260.868 470.914C259.554 471.635 258.1 472 256.646 472ZM431.173 312.935V295.842C431.299 294.724 431.215 293.579 430.908 292.477L448.678 302.738C448.664 302.738 448.664 302.738 448.664 302.738L431.173 312.935ZM421.75 284.272L407.769 276.09V276.081L418.115 270.056L421.75 272.136V284.272Z" fill="#163B60"/>
<path d="M481.58 193.878V227.348L481.548 227.331C481.308 230.42 479.658 233.416 476.598 235.198L429.822 262.45L418.593 269.001C411.945 272.877 411.929 282.46 418.577 286.366L436.823 297.04L443.455 282.602L456.574 285.002V313.201C456.655 313.931 456.671 314.679 456.574 315.439V315.504V315.495C456.254 318.548 454.556 321.495 451.448 323.183L436.422 331.449L433.539 333.022L430.047 334.955L425.978 337.203L404.096 349.251L399.738 351.648L394.292 354.643L389.935 357.043L364.128 371.232L261.846 427.519C259.363 428.884 256.463 429.121 253.852 428.267C253.195 428.03 252.571 427.766 251.978 427.415L140.132 362.748L136.063 360.389L132.875 358.55L132.587 358.379L129.704 356.7L128.518 356.018L123.088 352.872L118.714 350.349L36.7765 302.963C34.1013 301.429 32.5314 298.954 31.9707 296.3V296.29C31.7144 294.964 31.6824 293.59 31.9387 292.272V292.243L31.9548 292.214L31.7625 264.194V263.54V263.502V262.128L31.8747 262.241L48.855 278.593L172.01 207.5L309.775 127.961C312.883 126.188 316.711 126.188 319.803 127.961L459.234 207.888L469.069 195.263L481.356 193.897L481.58 193.878Z" fill="#D6EDFF"/>
<path d="M253.85 207.5V428.269C253.192 428.032 252.563 427.766 251.978 427.415L140.134 362.749L136.069 360.389L132.882 358.55L132.575 358.379L129.709 356.7L128.525 356.019L123.085 352.871L118.713 350.351L36.7713 302.964C34.0955 301.429 32.5162 298.954 31.9752 296.301V296.29C31.712 294.964 31.6829 293.59 31.9461 292.271V292.243V292.216L31.7559 264.195V263.541V262.128L31.8729 262.242L48.8491 278.593L172.01 207.5H253.85Z" fill="#BBE0FD"/>
<path d="M476.596 204.723L418.585 238.524C411.933 242.403 411.917 251.995 418.57 255.872L451.67 275.238C458.403 279.181 458.291 288.954 451.446 292.708L261.833 397.044C258.755 398.74 255.021 398.694 251.959 396.931L36.7632 272.499C30.0789 268.63 30.0788 258.962 36.7792 255.105L309.777 97.5046C312.887 95.7224 316.702 95.7032 319.796 97.4854L414.434 151.744L418.778 154.219L424.212 157.336L428.556 159.83L476.532 187.328C483.232 191.176 483.265 200.836 476.596 204.723Z" fill="white"/>
<path d="M385.102 328.843L385.523 359.091L414.885 342.939L414.48 312.691L385.102 328.843Z" fill="white"/>
<path d="M364.134 340.756V371.231L372.977 366.359V335.884L364.134 340.756Z" fill="white"/>
<path d="M428.561 159.829L321.105 223.357L313.901 211.177L414.452 151.733L418.784 154.217L424.214 157.335L428.561 159.829Z" fill="#77B8E0"/>
<path d="M342.976 18.1367C344.027 13.35 346.475 9.81378 350.068 8.67635C353.928 7.45421 358.322 9.29294 362.15 13.1696C363.939 6.80002 367.485 2.14523 372.475 0.571655C383.301 -2.85004 396.827 9.44508 402.695 28.033C403.056 29.1516 403.37 30.2702 403.652 31.3888C409.442 33.1522 415.326 40.0615 418.26 49.39C419.594 53.5883 420.159 57.7301 420.033 61.4467L420.645 61.7981C425.227 64.4228 428.051 69.3051 428.051 74.5843C428.051 85.9021 415.797 92.9934 405.974 87.3628L332.777 45.38C328.211 42.7537 325.387 37.8823 325.387 32.6015C325.387 22.9514 334.268 16.3827 342.976 18.1367Z" fill="#D0D0D0"/>
<path d="M47.2459 134.736C46.6691 132.073 45.3008 130.11 43.3155 129.485C41.1692 128.801 38.7277 129.826 36.6082 131.977C35.6155 128.442 33.6436 125.855 30.8668 124.983C24.8571 123.077 17.345 129.911 14.0853 140.234C13.8841 140.85 13.7097 141.476 13.5487 142.092C10.3292 143.078 7.06947 146.917 5.43289 152.093C4.69509 154.424 4.38645 156.728 4.45352 158.794L4.11816 158.984C1.5694 160.443 0 163.154 0 166.083C0 172.378 6.8011 176.312 12.2608 173.183L52.9069 149.865C55.4557 148.415 57.0252 145.703 57.0252 142.775C57.0252 137.41 52.0886 133.76 47.2459 134.736Z" fill="#D0D0D0"/>
<path d="M137.265 249.664L254.587 316.7L370.354 249.692L253.016 179.604L137.265 249.664ZM254.618 322.976L126.53 249.797L253.001 173.253L254.418 174.088L381.089 249.767L254.618 322.976Z" fill="#77B8E0"/>
<path d="M404.1 318.281V349.25L399.732 351.648L394.291 354.644L389.939 357.042V326.444L389.706 326.32L267.127 255.53L274.216 243.265L404.1 318.281Z" fill="#77B8E0"/>
<path d="M255.688 257.701L253.845 258.773L133.354 328.35L132.886 328.623V358.55L132.578 358.379L129.71 356.701L128.525 356.019L123.081 352.872L118.721 350.351V320.453L119.218 320.178L248.606 245.445L253.845 254.517L255.688 257.701Z" fill="#77B8E0"/>
<path d="M424.219 157.335L322.648 217.394L319.875 212.702L418.782 154.216L424.219 157.335Z" fill="#F1249A"/>
<path d="M399.727 320.796V351.651L394.28 354.645V323.933L394.156 323.867L273.062 253.939L275.792 249.22L399.727 320.796Z" fill="#FFD561"/>
<path d="M249.739 256.117L129.009 325.827L128.527 326.111V356.018L123.083 352.871V322.973L123.579 322.689L247.024 251.397L249.739 256.117Z" fill="#F1249A"/>
<path d="M389.938 357.212V357.043L394.291 354.644L399.731 351.648L404.099 349.25V349.592L389.938 357.212Z" fill="#11355B"/>
<path d="M404.099 318.404V318.281L403.866 318.149L404.099 318.006V318.404Z" fill="#CAE3F3"/>
<path d="M389.938 357.042V326.719L394.291 324.035V354.644L389.938 357.042ZM399.731 351.648V320.794L399.653 320.746L403.866 318.149L404.099 318.281V318.404V349.25L399.731 351.648Z" fill="#5FA4D6"/>
<path d="M394.28 354.645V324.037L399.649 320.748L399.726 320.796V351.651L394.28 354.645Z" fill="#CABE5C"/>
<path d="M132.884 358.302L128.526 355.951V326.216L132.884 328.898V358.302Z" fill="#5FA4D6"/>
<path d="M127.027 355.157L118.707 350.682V350.351L123.067 352.872L127.027 355.157Z" fill="#11355B"/>
<path d="M118.726 320.451V320.186L118.96 320.328L118.726 320.451Z" fill="#94C8F1"/>
<path d="M123.081 352.871L118.714 350.351V320.453L118.949 320.329L123.164 322.917L123.081 322.975V352.871Z" fill="#5FA4D6"/>
<path d="M128.526 355.952L127.044 355.155L123.082 352.871V322.973L123.165 322.916L128.526 326.215V355.952Z" fill="#BF2093"/>
<path d="M563.188 190.939C564.23 189.992 565.189 188.94 566 187.783C565.189 188.94 564.247 189.992 563.188 190.939Z" fill="#18436D"/>
<path d="M550.467 195.87H550.5H550.467ZM550.566 195.87C550.583 195.87 550.6 195.87 550.616 195.87C550.6 195.87 550.583 195.87 550.566 195.87ZM550.682 195.87C550.699 195.87 550.715 195.87 550.732 195.87C550.715 195.87 550.699 195.87 550.682 195.87ZM550.781 195.87C550.814 195.87 550.831 195.87 550.831 195.87C550.831 195.87 550.814 195.87 550.781 195.87ZM550.897 195.87C550.913 195.87 550.93 195.87 550.946 195.862C550.93 195.87 550.913 195.87 550.897 195.87ZM551.012 195.862C551.029 195.862 551.045 195.862 551.045 195.862C551.045 195.862 551.029 195.862 551.012 195.862ZM551.112 195.862C551.161 195.862 551.194 195.862 551.244 195.852C551.194 195.862 551.161 195.862 551.112 195.862ZM551.26 195.852C551.277 195.852 551.31 195.852 551.343 195.852C551.31 195.852 551.293 195.852 551.26 195.852ZM551.359 195.852C551.392 195.852 551.409 195.842 551.442 195.842C551.409 195.842 551.392 195.852 551.359 195.852ZM551.475 195.842C551.491 195.842 551.525 195.842 551.541 195.842C551.525 195.842 551.491 195.842 551.475 195.842ZM551.574 195.834C551.607 195.834 551.624 195.834 551.657 195.834C551.624 195.834 551.591 195.834 551.574 195.834ZM551.657 195.834C556.084 195.53 560.082 193.738 563.188 190.941C560.098 193.738 556.084 195.53 551.657 195.834Z" fill="#153E6A"/>
<path d="M545.967 178.957C547.364 177.517 548.597 175.933 549.682 174.247C548.597 175.933 547.364 177.517 545.967 178.957Z" fill="#68ACDA"/>
<path d="M549.693 174.221C549.693 174.211 549.709 174.191 549.726 174.183C549.709 174.191 549.693 174.211 549.693 174.221ZM549.758 174.098L549.775 174.088L549.758 174.098Z" fill="#68ACDA"/>
<path d="M500.821 138.103C500.837 138.103 500.837 138.093 500.837 138.093C500.837 138.093 500.837 138.103 500.821 138.103ZM500.886 138.037C500.886 138.027 500.902 138.017 500.918 138.008C500.902 138.017 500.886 138.027 500.886 138.037ZM500.934 137.971C500.966 137.951 500.983 137.932 500.999 137.914C500.983 137.932 500.966 137.951 500.934 137.971ZM500.999 137.904C502.227 136.51 503.552 135.222 505.007 134.074C503.552 135.222 502.227 136.51 500.999 137.904Z" fill="#18436D"/>
<path d="M524.074 188.333C524.074 188.333 524.091 188.333 524.107 188.333C524.091 188.333 524.074 188.333 524.074 188.333ZM524.156 188.333C524.172 188.333 524.188 188.333 524.188 188.333C524.188 188.333 524.172 188.333 524.156 188.333ZM524.237 188.333C524.253 188.333 524.269 188.333 524.286 188.333C524.269 188.333 524.253 188.333 524.237 188.333ZM524.335 188.333C524.351 188.333 524.351 188.333 524.367 188.333C524.351 188.333 524.351 188.333 524.335 188.333ZM524.416 188.333C524.432 188.333 524.432 188.333 524.465 188.333C524.432 188.333 524.432 188.333 524.416 188.333ZM524.497 188.333C524.514 188.333 524.53 188.333 524.546 188.333C524.53 188.333 524.514 188.333 524.497 188.333ZM524.579 188.333C524.611 188.333 524.644 188.333 524.676 188.333C524.644 188.333 524.611 188.333 524.579 188.333ZM524.709 188.333C524.725 188.324 524.742 188.324 524.758 188.324C524.742 188.324 524.725 188.324 524.709 188.333ZM524.79 188.324C524.806 188.324 524.823 188.324 524.855 188.324C524.823 188.324 524.806 188.324 524.79 188.324ZM524.872 188.324C524.888 188.324 524.92 188.324 524.937 188.324C524.92 188.324 524.888 188.324 524.872 188.324ZM524.953 188.324C524.986 188.324 525.002 188.324 525.018 188.324C525.002 188.324 524.986 188.324 524.953 188.324Z" fill="#102C56"/>
<path d="M529.945 187.756C531.334 187.481 532.674 187.112 533.981 186.656C532.674 187.112 531.334 187.481 529.945 187.756Z" fill="#153E6A"/>
<path d="M525.021 188.324C526.701 188.267 528.349 188.068 529.948 187.755C528.349 188.068 526.701 188.267 525.021 188.324Z" fill="#102C56"/>
<path d="M533.986 186.655C535.295 186.2 536.571 185.66 537.799 185.033C536.571 185.66 535.311 186.2 533.986 186.655Z" fill="#458CC8"/>
<path d="M493.525 157.877C493.525 157.84 493.525 157.811 493.525 157.774C493.525 157.811 493.525 157.84 493.525 157.877ZM493.525 157.745C493.525 157.717 493.525 157.689 493.525 157.66C493.525 157.689 493.525 157.717 493.525 157.745ZM493.525 157.641C493.525 157.612 493.525 157.575 493.525 157.546C493.525 157.585 493.525 157.612 493.525 157.641ZM493.525 157.536C493.525 157.158 493.525 156.788 493.541 156.418C493.525 156.788 493.525 157.158 493.525 157.536ZM493.541 156.408C493.541 156.389 493.557 156.362 493.557 156.333C493.557 156.362 493.541 156.389 493.541 156.408ZM493.557 156.286C493.557 156.276 493.557 156.267 493.557 156.257C493.557 156.267 493.557 156.276 493.557 156.286Z" fill="#153E6A"/>
<path d="M96.9724 284.244C77.3495 284.244 61.4458 274.983 61.4458 263.551C61.4458 252.129 77.3495 242.858 96.9724 242.858C116.609 242.858 132.513 252.129 132.513 263.551C132.513 274.983 116.609 284.244 96.9724 284.244Z" fill="#B2BBC9"/>
<path d="M157.655 86.5745C157.655 86.5745 157.485 83.313 159.278 81.9963C161.056 80.6781 161.734 83.512 161.734 83.512C168.001 80.8489 168.537 83.1239 168.537 83.1239C171.177 86.6973 169.384 88.0155 169.384 88.0155C167.789 90.1861 160.125 91.9868 160.125 91.9868L157.655 86.5745Z" fill="#F9BEAE"/>
<path d="M157.332 84.737L132.334 101.163C132.334 101.163 110.246 99.2586 100.938 101.229L104.341 111.59L105.494 115.125C105.494 115.125 133.852 114.671 137.1 112.149C140.165 109.771 159.792 93.8548 161.985 92.054L162.056 92.0062L162.126 91.95L162.182 91.9022L157.332 84.737Z" fill="#23477C"/>
<path d="M119.167 261.267C119.857 258.972 111.633 252.877 111.633 252.877L101.283 251.295C98.702 255.902 98.8122 257.541 100.758 258.793C114.379 265.627 117.373 264.034 117.373 264.034C117.373 264.034 118.464 263.561 119.167 261.267Z" fill="#15325C"/>
<path d="M99.2717 271.997C99.9692 269.703 91.7488 263.608 91.7488 263.608L81.3945 262.025C78.8094 266.631 78.9188 268.271 80.861 269.523C94.498 276.358 97.4798 274.765 97.4798 274.765C97.4798 274.765 98.5741 274.29 99.2717 271.997Z" fill="#15325C"/>
<path d="M112.014 162.171L113.707 205.415L111.904 253.181C111.904 253.181 109.454 255.968 99.6968 254.564L97.6462 213.417L86.3887 150.229L112.014 162.171Z" fill="#F1249A"/>
<path d="M97.7591 170.218L92.1567 263.616C92.1567 263.616 89.7244 266.403 79.9544 265.009L75.0215 170.218H97.7591Z" fill="#F1249A"/>
<path d="M72.8413 122.427V173.587C72.8413 173.587 99.3808 185.454 113.043 166.088L111.901 108.067C111.901 108.067 111.474 105.157 108.998 102.721C107.759 101.498 106.177 100.758 104.526 100.541C102.875 100.322 101.142 100.626 99.6147 101.46L78.4272 113.044C77.0239 113.802 75.8543 114.844 74.9463 116.077C73.598 117.887 72.8413 120.105 72.8413 122.427Z" fill="#15325C"/>
<path d="M112.841 136.292C112.841 136.292 112.675 133.041 114.46 131.714C116.246 130.397 116.924 133.24 116.924 133.24C123.193 130.567 123.719 132.842 123.719 132.842C126.363 136.415 124.577 137.742 124.577 137.742C122.972 139.913 115.304 141.715 115.304 141.715L112.841 136.292Z" fill="#F9BEAE"/>
<path d="M77.3467 114.805C85.0056 114.397 85.3086 126.635 85.3086 126.635L86.8789 144.825L112.129 134.768L115.793 141.584C115.793 141.584 100.213 150.74 88.9177 157.196C83.3388 160.371 76.2859 157.177 75.0186 150.882C73.2692 142.266 71.258 131.669 71.0376 127.725C70.4866 117.431 73.5172 115.024 77.3467 114.805Z" fill="#23477C"/>
<path d="M97.991 110.302C97.991 110.302 89.9555 112.748 86.4844 108.91V88.5762L88.0969 90.2063L96.9525 99.1453L97.745 107.687L97.991 110.302Z" fill="#F9BEAE"/>
<path d="M97.7436 107.687C91.745 105.354 88.1923 100.264 88.0967 90.2068L96.9511 99.1462L97.7436 107.687Z" fill="#F38E77"/>
<path d="M102.409 78.5683C102.409 78.5683 111.883 103.81 101.144 104.227C90.4043 104.653 84.395 93.2882 84.395 93.2882L88.9467 82.264L102.409 78.5683Z" fill="#F9BEAE"/>
<path d="M104.411 74.3777C99.3006 68.7657 93.8196 74.3777 93.8196 74.3777C81.8 75.0315 69.3685 89.1274 86.4843 99.8281V97.1842L88.2426 94.8905C91.9515 94.1035 90.3854 87.5823 90.3854 87.5823C104.081 88.4064 109.534 79.9883 104.411 74.3777Z" fill="#052754"/>
<path d="M89.0803 92.8532C90.6061 94.3216 90.9602 96.426 89.884 97.5538C88.7942 98.683 86.669 98.4078 85.1433 96.9381C83.6175 95.4684 83.2634 93.364 84.3396 92.2361C85.4294 91.1083 87.541 91.3835 89.0803 92.8532Z" fill="#F9BEAE"/>
<path d="M256.131 393.868L255.848 393.716L212.857 368.88L225.955 361.213L255.52 343.903L286.113 361.317L299.137 368.73L299.405 368.88L299.137 369.043L256.131 393.868Z" fill="#B2BBC9"/>
<path d="M256.121 364.712L255.843 379.792L255.668 389.954L212.857 365.356V354.967L225.957 347.297L256.121 364.712Z" fill="#183561"/>
<path d="M299.127 354.814V355.127L298.948 365.356L255.665 389.954L255.843 379.792L256.127 364.711L286.105 347.402L299.127 354.814Z" fill="#23477C"/>
<path d="M299.405 354.966L299.137 355.127L256.131 379.952L255.848 379.791L212.857 354.966L225.955 347.297L255.52 329.988L286.113 347.401L299.137 354.814L299.405 354.966Z" fill="#3C6A9E"/>
<path d="M226.545 354.919L255.57 337.932L285.559 355.005L256.119 372L226.545 354.919Z" fill="#FFD561"/>
<path d="M230.452 354.911L255.584 340.207L281.603 355.024L256.116 369.735L230.452 354.911Z" fill="#5B95D3"/>
<path d="M250.22 354.957L255.927 351.61L261.839 354.975L256.044 358.322L250.22 354.957Z" fill="#BBE0FD"/>
<path d="M255.584 342.17L279.888 356.009L281.603 355.024L255.584 340.207L230.452 354.91L232.138 355.887L255.584 342.17Z" fill="#183561"/>
<path d="M386.849 225.331H380.142V222.127C379.133 221.956 378.171 221.718 377.27 221.434L372.488 224.165L366.946 220.809L371.728 218.108C370.765 217.018 370.222 215.785 370.222 214.477C370.222 214.031 370.284 213.595 370.408 213.179L372.488 214.44L377.27 211.7C378.171 211.993 379.133 212.221 380.142 212.392V213.131C379.723 213.519 379.49 213.985 379.49 214.477C379.49 215.889 381.462 217.027 383.868 217.027C386.306 217.027 388.262 215.889 388.262 214.477C388.262 213.729 387.719 213.064 386.849 212.6V212.505C388.138 212.335 389.364 212.06 390.498 211.7L395.528 214.581L397.406 213.434C397.484 213.775 397.531 214.126 397.531 214.477C397.531 215.785 396.987 217.018 396.025 218.098L401.07 220.961L395.528 224.317L390.498 221.434C389.364 221.794 388.138 222.069 386.849 222.231V225.331ZM398.074 209.53L396.025 208.373C396.677 207.642 397.127 206.846 397.36 206.003L400.775 207.984L398.074 209.53ZM369.694 209.53L367.241 208.126L370.47 206.259C370.718 207.007 371.153 207.718 371.728 208.373L369.694 209.53ZM383.868 207.302C382.533 207.302 381.307 206.94 380.499 206.382V203.614H387.222V206.4C386.414 206.951 385.203 207.302 383.868 207.302Z" fill="#B2BBC9"/>
<path d="M366.946 215.597L371.728 212.894C370.765 211.804 370.222 210.572 370.222 209.265C370.222 208.591 370.299 204.96 370.299 204.96C370.299 204.96 371.308 206.089 371.821 205.539L367.241 202.913L372.783 199.709L377.332 202.287C379.273 201.662 381.508 201.311 383.868 201.311C386.259 201.311 388.495 201.671 390.435 202.287L395.233 199.567L400.775 202.771L395.947 205.539C396.444 206.089 397.577 204.667 397.577 204.667C397.577 204.667 397.531 208.582 397.531 209.265C397.531 210.572 396.987 211.804 396.025 212.885L401.07 215.747L395.528 219.104L390.498 216.222C388.526 216.848 386.275 217.217 383.868 217.217C381.477 217.217 379.226 216.857 377.27 216.222L372.488 218.951L366.946 215.597Z" fill="#E8A302"/>
<path d="M386.776 215.596V219.975H380.061V215.596H386.776Z" fill="#FEC400"/>
<path d="M372.482 214.43V218.951L366.941 215.596V211.084L372.482 214.43Z" fill="#FEC400"/>
<path d="M367.233 198.401V202.913L370.579 204.809L372.483 200.734L367.233 198.401Z" fill="#FEC400"/>
<path d="M395.527 214.582V219.104L401.07 215.747V211.225L395.527 214.582Z" fill="#FEC400"/>
<path d="M400.777 198.248V202.77L397.206 204.808L395.669 201.025L400.777 198.248Z" fill="#FEC400"/>
<path d="M379.49 204.742C379.49 203.329 381.462 202.191 383.868 202.191C386.306 202.191 388.262 203.329 388.262 204.742C388.262 206.154 386.306 207.302 383.868 207.302C381.462 207.302 379.49 206.154 379.49 204.742ZM366.946 211.083L372.488 214.439L377.27 211.699C378.171 211.993 379.133 212.221 380.142 212.392V215.605H386.849V212.505C388.138 212.334 389.364 212.059 390.498 211.699L395.528 214.58L401.07 211.224L396.025 208.373C396.987 207.281 397.531 206.05 397.531 204.742C397.531 203.396 396.956 202.125 395.947 201.016L400.775 198.248L395.233 195.045L390.435 197.764C389.426 197.452 388.34 197.196 387.222 197.035V193.879H380.499V197.035C379.381 197.205 378.31 197.452 377.332 197.764L372.783 195.186L367.241 198.399L371.821 201.016C370.796 202.125 370.222 203.396 370.222 204.742C370.222 206.05 370.765 207.281 371.728 208.373L366.946 211.083Z" fill="#FFD561"/>
<path d="M447.807 224.827L444.918 223.179L454.297 217.708L457.026 219.253L447.807 224.827Z" fill="#95AEC9"/>
<path d="M433.383 226.524H422.246V221.188C420.564 220.912 418.962 220.523 417.47 220.041L409.522 224.591L400.32 219.016L408.253 214.514C406.666 212.704 405.762 210.656 405.762 208.475C405.762 206.238 406.714 204.135 408.411 202.285L400.796 197.936L410.014 192.609L417.566 196.882C419.216 196.362 420.992 195.954 422.849 195.68V190.427H434.002V195.67C435.89 195.945 437.667 196.362 439.349 196.893L447.329 192.361L456.531 197.688L448.503 202.285C450.185 204.135 451.137 206.238 451.137 208.475C451.137 210.647 450.232 212.704 448.646 214.505L454.294 217.709L444.918 223.179L439.444 220.041C437.572 220.647 435.541 221.093 433.383 221.377V226.524ZM428.449 204.228C424.419 204.228 421.167 206.135 421.167 208.475C421.167 210.826 424.419 212.723 428.449 212.723C432.479 212.723 435.747 210.826 435.747 208.475C435.747 206.135 432.479 204.228 428.449 204.228Z" fill="#B2BBC9"/>
<path d="M400.312 210.354L408.247 205.851C406.66 204.041 405.755 201.994 405.755 199.822C405.755 198.696 405.882 192.667 405.882 192.667C405.882 192.667 407.564 194.544 408.405 193.623L400.789 189.273L410.008 183.945L417.561 188.23C420.799 187.198 424.496 186.609 428.447 186.609C432.383 186.609 436.112 187.198 439.333 188.23L447.315 183.699L456.534 189.027L448.489 193.633C449.33 194.544 451.203 192.183 451.203 192.183C451.203 192.183 451.139 198.696 451.139 199.822C451.139 201.994 450.235 204.041 448.632 205.842L457.01 210.591L447.807 216.165L439.428 211.378C436.175 212.431 432.43 213.028 428.447 213.028C424.464 213.028 420.719 212.431 417.466 211.378L409.516 215.928L400.312 210.354Z" fill="#E8A302"/>
<path d="M433.275 210.354V217.625H422.127V210.354H433.275Z" fill="#FEC400"/>
<path d="M409.523 208.411V215.928L400.302 210.353V202.837L409.523 208.411Z" fill="#FEC400"/>
<path d="M400.784 181.766V189.273L406.361 192.42L409.523 185.642L400.784 181.766Z" fill="#FEC400"/>
<path d="M447.806 208.658V216.165L457.01 210.591V203.084L447.806 208.658Z" fill="#FEC400"/>
<path d="M456.531 181.517V189.025L450.614 192.418L448.059 186.125L456.531 181.517Z" fill="#FEC400"/>
<path d="M421.163 192.306C421.163 189.964 424.417 188.059 428.447 188.059C432.478 188.059 435.731 189.964 435.731 192.306C435.731 194.658 432.478 196.552 428.447 196.552C424.417 196.552 421.163 194.658 421.163 192.306ZM400.312 202.837L409.516 208.41L417.466 203.871C418.958 204.353 420.561 204.742 422.243 205.017V210.354H433.382V205.207C435.54 204.923 437.572 204.468 439.428 203.871L447.807 208.658L457.01 203.084L448.632 198.334C450.235 196.523 451.139 194.477 451.139 192.306C451.139 190.069 450.171 187.965 448.489 186.117L456.534 181.519L447.315 176.192L439.333 180.713C437.667 180.183 435.874 179.775 433.985 179.499V174.249H422.846V179.499C420.989 179.784 419.212 180.192 417.561 180.713L410.008 176.429L400.789 181.765L408.405 186.117C406.723 187.965 405.755 190.069 405.755 192.306C405.755 194.477 406.66 196.533 408.247 198.334L400.312 202.837Z" fill="#FFD561"/>
<path d="M360.36 168.797H350.75V164.201C349.302 163.953 347.916 163.622 346.622 163.205L339.769 167.13L331.838 162.324L338.676 158.437C337.305 156.873 336.535 155.11 336.535 153.233C336.535 151.299 337.351 149.488 338.814 147.886L332.254 144.143L340.185 139.545L346.715 143.233C348.132 142.786 349.656 142.428 351.273 142.19V137.659H360.883V142.19C362.5 142.428 364.056 142.777 365.488 143.242L372.372 139.337L380.319 143.933L373.388 147.896C374.836 149.488 375.668 151.309 375.668 153.233C375.668 155.11 374.882 156.873 373.511 158.437L380.734 162.532L372.788 167.338L365.58 163.205C363.963 163.727 362.208 164.115 360.36 164.352V168.797ZM356.094 149.574C352.613 149.574 349.81 151.214 349.81 153.233C349.81 155.261 352.613 156.902 356.094 156.902C359.559 156.902 362.377 155.261 362.377 153.233C362.377 151.214 359.559 149.574 356.094 149.574Z" fill="#B2BBC9"/>
<path d="M331.838 156.379L338.676 152.493C337.305 150.938 336.535 149.165 336.535 147.288C336.535 146.332 336.643 141.127 336.643 141.127C336.643 141.127 338.075 142.749 338.814 141.953L332.254 138.198L340.185 133.601L346.715 137.298C349.502 136.406 352.69 135.895 356.094 135.895C359.497 135.895 362.7 136.406 365.488 137.298L372.372 133.393L380.319 137.991L373.388 141.953C374.112 142.749 375.714 140.71 375.714 140.71C375.714 140.71 375.668 146.321 375.668 147.288C375.668 149.165 374.882 150.928 373.511 152.493L380.734 156.587L372.788 161.393L365.58 157.26C362.762 158.17 359.543 158.683 356.094 158.683C352.659 158.683 349.425 158.17 346.622 157.26L339.769 161.185L331.838 156.379Z" fill="#E8A302"/>
<path d="M360.259 156.379V162.645H350.651V156.379H360.259Z" fill="#FEC400"/>
<path d="M339.768 154.702V161.185L331.83 156.38V149.896L339.768 154.702Z" fill="#FEC400"/>
<path d="M332.254 131.724V138.199L337.057 140.909L339.768 135.061L332.254 131.724Z" fill="#FEC400"/>
<path d="M372.788 154.92V161.393L380.734 156.587V150.114L372.788 154.92Z" fill="#FEC400"/>
<path d="M380.317 131.505V137.99L375.205 140.909L373.003 135.478L380.317 131.505Z" fill="#FEC400"/>
<path d="M349.81 140.815C349.81 138.796 352.613 137.156 356.094 137.156C359.559 137.156 362.377 138.796 362.377 140.815C362.377 142.833 359.559 144.473 356.094 144.473C352.613 144.473 349.81 142.833 349.81 140.815ZM331.838 149.895L339.769 154.701L346.622 150.787C347.916 151.204 349.302 151.535 350.75 151.772V156.379H360.36V151.934C362.208 151.697 363.963 151.309 365.58 150.787L372.788 154.92L380.734 150.114L373.511 146.009C374.882 144.455 375.668 142.692 375.668 140.815C375.668 138.89 374.836 137.07 373.388 135.478L380.319 131.506L372.372 126.918L365.488 130.815C364.056 130.359 362.5 130.008 360.883 129.762V125.241H351.273V129.771C349.656 130.008 348.132 130.359 346.715 130.815L340.185 127.127L332.254 131.724L338.814 135.468C337.351 137.07 336.535 138.881 336.535 140.815C336.535 142.692 337.305 144.455 338.676 146.019L331.838 149.895Z" fill="#FFD561"/>
<path d="M167.808 95.694L254.372 145.156L339.815 95.694L253.251 43.996L167.808 95.694Z" fill="#5B95D3"/>
<path d="M252.519 308.206C251.322 308.206 250.141 307.883 249.08 307.248L210.414 283.853L253.853 258.773L255.686 257.702L253.853 254.517L248.61 245.444L196.581 275.484L170.552 259.73C166.279 257.152 166.279 250.971 170.552 248.392L249.807 200.429C250.853 199.784 252.034 199.471 253.231 199.471C254.413 199.471 255.58 199.784 256.625 200.409L336.85 248.327C339.017 249.615 340.093 251.834 340.078 254.043C340.078 256.25 338.987 258.45 336.82 259.73L319.911 269.663L274.2 243.264L267.125 255.531L305.882 277.91L255.883 307.295C254.837 307.903 253.686 308.206 252.519 308.206Z" fill="#B2BBC9"/>
<path d="M305.876 277.91L267.121 255.53L274.214 243.265L319.912 269.663L315.584 272.204L275.806 249.216L273.071 253.937L310.189 275.369L305.876 277.91Z" fill="#5387B1"/>
<path d="M210.413 283.854L206.155 281.276L249.733 256.119L247.011 251.398L200.843 278.063L196.584 275.484L248.606 245.446L253.845 254.517L255.688 257.701L253.845 258.773L210.413 283.854Z" fill="#5387B1"/>
<path d="M310.184 275.371L273.072 253.938L275.802 249.218L315.584 272.205L310.184 275.371Z" fill="#B29D4D"/>
<path d="M206.153 281.274L200.854 278.062L247.024 251.398L249.739 256.117L206.153 281.274Z" fill="#A81A7A"/>
<path d="M253.251 145.157V298.017L339.815 246.317V94.5768L253.251 145.157Z" fill="#23477C"/>
<path d="M265.617 152.246V276.232L327.445 239.302V116.122L265.617 152.246ZM263.369 280.195V150.958L329.693 112.207V240.572L263.369 280.195Z" fill="#052754"/>
<path d="M167.818 94.5771V246.319L253.248 298.017V145.157L167.818 94.5771Z" fill="#3C6A9E"/>
<path d="M176.953 240.108V117.535C176.953 115.837 177.769 114.425 178.963 113.544C180.477 112.425 182.603 112.16 184.467 113.26L241.683 147.137C243.197 148.028 244.115 149.659 244.115 151.412V274.735C244.115 278.613 239.892 281.001 236.571 278.991L179.356 244.364C177.871 243.464 176.953 241.852 176.953 240.108Z" fill="#23477C"/>
<path d="M187.082 240.99C185.582 240.09 184.679 238.479 184.679 236.735V114.169C184.679 113.942 184.694 113.715 184.723 113.497L184.315 113.259C182.451 112.16 180.34 112.427 178.811 113.545C177.617 114.426 176.802 115.838 176.802 117.535V240.108C176.802 241.854 177.719 243.464 179.204 244.365L236.415 278.993C239.546 280.878 243.477 278.878 243.929 275.399L187.082 240.99Z" fill="#052754"/>
<path d="M244.253 157.072L188.054 123.801V142.911L244.253 176.182V157.072Z" fill="#5B95D3"/>
<path d="M244.253 180.685L188.054 147.404V166.514L244.253 199.786V180.685Z" fill="#5B95D3"/>
<path d="M244.253 204.287L188.054 171.006V190.115L244.253 223.387V204.287Z" fill="#5B95D3"/>
<path d="M244.253 227.89L188.054 194.609V213.719L244.253 247V227.89Z" fill="#5B95D3"/>
<path d="M244.253 251.494L188.054 218.211V237.321L244.253 270.603V251.494Z" fill="#5B95D3"/>
<path d="M197.698 132.786V145.337L234.611 167.195V154.645L197.698 132.786Z" fill="#D6EFFB"/>
<path d="M197.698 168.94L234.611 190.799V178.249L197.698 156.4V168.94Z" fill="#D6EFFB"/>
<path d="M197.698 192.552L234.611 214.402V201.852L197.698 180.002V192.552Z" fill="#D6EFFB"/>
<path d="M197.698 216.044L234.611 237.895V225.344L197.698 203.494V216.044Z" fill="#D6EFFB"/>
<path d="M197.698 240.203L234.611 262.054V249.504L197.698 227.653V240.203Z" fill="#D6EFFB"/>
</svg>
