<svg width="14" height="14" viewBox="0 0 14 14" fill="none" xmlns="http://www.w3.org/2000/svg">
<path d="M10.6915 6.38138C10.6159 6.22475 10.4497 6.125 10.2668 6.125H8.40014V0.4375C8.40014 0.196 8.19108 0 7.93348 0H6.06681C5.80921 0 5.60014 0.196 5.60014 0.4375V6.125H3.73348C3.55054 6.125 3.38441 6.22563 3.30881 6.38138C3.23228 6.538 3.26214 6.72087 3.38254 6.85038L6.64921 10.3504C6.73788 10.4458 6.86574 10.5 7.00014 10.5C7.13454 10.5 7.26241 10.4449 7.35108 10.3504L10.6177 6.85038C10.7391 6.72175 10.7671 6.538 10.6915 6.38138Z" fill="#565656"/>
<path d="M12.1333 9.625V12.25H1.86667V9.625H0V13.125C0 13.6089 0.418133 14 0.933333 14H13.0667C13.5828 14 14 13.6089 14 13.125V9.625H12.1333Z" fill="#565656"/>
</svg>
