<svg width="14" height="14" viewBox="0 0 14 14" fill="none" xmlns="http://www.w3.org/2000/svg">
<path d="M10.6915 6.38138C10.6159 6.22475 10.4498 6.125 10.2668 6.125H8.40018V0.4375C8.40018 0.196 8.19111 0 7.93351 0H6.06684C5.80924 0 5.60018 0.196 5.60018 0.4375V6.125H3.73351C3.55058 6.125 3.38444 6.22563 3.30884 6.38138C3.23231 6.538 3.26218 6.72087 3.38258 6.85038L6.64924 10.3504C6.73791 10.4458 6.86577 10.5 7.00017 10.5C7.13457 10.5 7.26244 10.4449 7.35111 10.3504L10.6178 6.85038C10.7391 6.72175 10.7671 6.538 10.6915 6.38138Z" fill="#565656"/>
<path d="M12.1333 9.625V12.25H1.86667V9.625H0V13.125C0 13.6089 0.418133 14 0.933333 14H13.0667C13.5828 14 14 13.6089 14 13.125V9.625H12.1333Z" fill="#565656"/>
</svg>
