<svg width="13" height="14" viewBox="0 0 13 14" fill="none" xmlns="http://www.w3.org/2000/svg">
<path d="M6.75953 13.9608C9.56792 13.6462 11.8186 11.4012 12.1389 8.59278C12.5593 4.92071 9.7052 1.79487 6.1275 1.75483V0.107546C6.1275 0.0160301 6.0131 -0.0325877 5.93589 0.0246097L2.54408 2.51556C2.48688 2.55846 2.48688 2.64139 2.54408 2.68429L5.93589 5.17524C6.0131 5.23244 6.1275 5.18096 6.1275 5.0923V3.44788C8.64132 3.48791 10.6547 5.6271 10.4831 8.18382C10.3372 10.3831 8.54409 12.1676 6.34485 12.3078C4.01405 12.4565 2.03216 10.792 1.67754 8.58992C1.61176 8.18096 1.25428 7.88354 0.842457 7.88354C0.33054 7.88354 -0.0698424 8.33825 0.010234 8.84445C0.507852 11.9817 3.4049 14.3354 6.75953 13.9608Z" fill="#565656"/>
</svg>
