<svg width="35" height="36" viewBox="0 0 35 36" fill="none" xmlns="http://www.w3.org/2000/svg">
<path d="M32.9034 28.6806C34.2779 26.8092 35 24.6345 35 22.3425C35 18.6735 33.0973 15.2672 29.8873 13.1415C29.5912 9.8726 28.0649 6.84107 25.5129 4.5053C22.6909 1.92249 18.947 0.5 14.9707 0.5C10.9945 0.5 7.25057 1.92249 4.42856 4.50537C1.57279 7.11909 4.55839e-05 10.6039 4.55839e-05 14.3179C4.55839e-05 17.1745 0.920913 19.8827 2.67146 22.2L0.0997133 28.5617C-0.108851 29.0777 0.0160416 29.6685 0.415601 30.0557C0.67605 30.3082 1.01908 30.4414 1.36757 30.4414C1.55371 30.4414 1.74143 30.4033 1.91875 30.3252L9.25377 27.0918C10.1746 27.4438 11.1233 27.7071 12.0939 27.8814C13.088 29.5165 14.5061 30.9011 16.23 31.909C18.1546 33.0341 20.3767 33.6353 22.6624 33.6526C22.696 33.6551 22.7295 33.6577 22.7637 33.6577C24.344 33.6577 25.8751 33.3848 27.3235 32.8456L33.0813 35.3838C33.2587 35.462 33.4464 35.5 33.6325 35.5C33.9809 35.5 34.3241 35.3668 34.5845 35.1143C34.984 34.727 35.1089 34.1362 34.9004 33.6203L32.9034 28.6806ZM30.0705 28.9687L31.1034 31.5236L27.9016 30.1123C27.5555 29.9597 27.1616 29.9573 26.8136 30.1058C25.5587 30.6412 24.215 30.9156 22.819 30.9227C22.8006 30.9219 22.7824 30.9199 22.7637 30.9199C20.0694 30.9199 17.5239 29.867 15.7456 28.1156C18.0003 28.0076 20.2104 27.4318 22.1808 26.4311C22.854 26.0892 23.1226 25.2663 22.7806 24.593C22.4388 23.9198 21.6158 23.6514 20.9425 23.9932C19.1287 24.9144 17.0636 25.4014 14.9707 25.4014C13.1521 25.4014 11.4012 25.0478 9.76694 24.3505C9.41906 24.202 9.02504 24.2043 8.67893 24.357L3.89666 26.4651L5.50679 22.4821C5.69772 22.0098 5.61029 21.4704 5.27977 21.0828C3.61461 19.1292 2.73442 16.7899 2.73442 14.3179C2.73442 8.20634 8.22359 3.23437 14.9707 3.23437C21.7178 3.23437 27.207 8.20634 27.207 14.3179C27.207 16.2918 26.6267 18.2297 25.5287 19.9219C25.1177 20.5553 25.298 21.4019 25.9315 21.8129C26.5648 22.224 27.4115 22.0436 27.8226 21.4101C28.797 19.9084 29.448 18.2502 29.749 16.5281C31.3506 18.0966 32.2656 20.1624 32.2656 22.3425C32.2656 24.2515 31.5851 26.0589 30.2975 27.5693C29.967 27.957 29.8796 28.4964 30.0705 28.9687ZM16.2695 21.3496C16.2695 22.1047 15.6575 22.7168 14.9024 22.7168C14.1473 22.7168 13.5352 22.1047 13.5352 21.3496C13.5352 20.5945 14.1473 19.9824 14.9024 19.9824C15.6575 19.9824 16.2695 20.5945 16.2695 21.3496ZM20.0965 11.1061C20.0973 11.1251 20.0977 11.1441 20.0977 11.1633C20.0982 13.2214 18.8753 15.0735 16.9824 15.8816C16.5907 16.0489 16.3375 16.4434 16.3375 16.8865V16.9746C16.3375 17.7297 15.7254 18.3418 14.9703 18.3418C14.2152 18.3418 13.6031 17.7297 13.6031 16.9746V16.8866C13.6031 15.3464 14.5081 13.9649 15.9088 13.3669C16.7806 12.9947 17.348 12.1483 17.363 11.2031C17.3627 11.19 17.3625 11.1768 17.3625 11.1636C17.3625 9.84464 16.2894 8.77154 14.9703 8.77154C13.6513 8.77147 12.5781 9.84457 12.5781 11.1636C12.5781 11.9187 11.9661 12.5307 11.211 12.5307C10.4559 12.5307 9.84378 11.9187 9.84378 11.1636C9.84378 8.33684 12.1435 6.0371 14.9703 6.0371C17.7779 6.0371 20.0657 8.30574 20.0965 11.1061Z" fill="#7C838B"/>
</svg>
