<svg width="30" height="30" viewBox="0 0 30 30" fill="none" xmlns="http://www.w3.org/2000/svg">
<path d="M14.5833 0.416504C6.53333 0.416504 0 6.94984 0 14.9998C0 23.0498 6.53333 29.5832 14.5833 29.5832C22.6333 29.5832 29.1667 23.0498 29.1667 14.9998C29.1667 6.94984 22.6333 0.416504 14.5833 0.416504ZM14.5833 4.7915C17.0042 4.7915 18.9583 6.74567 18.9583 9.1665C18.9583 11.5873 17.0042 13.5415 14.5833 13.5415C12.1625 13.5415 10.2083 11.5873 10.2083 9.1665C10.2083 6.74567 12.1625 4.7915 14.5833 4.7915ZM14.5833 25.4998C10.9375 25.4998 7.71458 23.6332 5.83333 20.804C5.87708 17.9019 11.6667 16.3123 14.5833 16.3123C17.4854 16.3123 23.2896 17.9019 23.3333 20.804C21.4521 23.6332 18.2292 25.4998 14.5833 25.4998Z" fill="#7C838B"/>
</svg>
