<svg width="32" height="32" viewBox="0 0 32 32" fill="none" xmlns="http://www.w3.org/2000/svg">
<path d="M15.9867 2.66675C8.62665 2.66675 2.65332 8.64008 2.65332 16.0001C2.65332 23.3601 8.62665 29.3334 15.9867 29.3334C23.3467 29.3334 29.32 23.3601 29.32 16.0001C29.32 8.64008 23.3467 2.66675 15.9867 2.66675ZM20.8 11.1201C22.2267 11.1201 23.3733 12.2667 23.3733 13.6934C23.3733 15.1201 22.2267 16.2667 20.8 16.2667C19.3733 16.2667 18.2267 15.1201 18.2267 13.6934C18.2133 12.2667 19.3733 11.1201 20.8 11.1201ZM12.8 9.01342C14.5333 9.01342 15.9467 10.4267 15.9467 12.1601C15.9467 13.8934 14.5333 15.3067 12.8 15.3067C11.0667 15.3067 9.65332 13.8934 9.65332 12.1601C9.65332 10.4134 11.0533 9.01342 12.8 9.01342ZM12.8 21.1867V26.1867C9.59999 25.1867 7.06665 22.7201 5.94665 19.5734C7.34665 18.0801 10.84 17.3201 12.8 17.3201C13.5067 17.3201 14.4 17.4267 15.3333 17.6134C13.1467 18.7734 12.8 20.3067 12.8 21.1867ZM15.9867 26.6667C15.6267 26.6667 15.28 26.6534 14.9333 26.6134V21.1867C14.9333 19.2934 18.8533 18.3467 20.8 18.3467C22.2267 18.3467 24.6933 18.8667 25.92 19.8801C24.36 23.8401 20.5067 26.6667 15.9867 26.6667Z" fill="#3F8CFE"/>
</svg>
